<svg xmlns="http://www.w3.org/2000/svg" width="720" height="465" fill="none" viewBox="0 0 720 465">
    <g class="Frame 2 flat">
        <path fill="#fff" d="M0 0h720v465H0z" />
        <g class="color g-1">
            <rect width="120" height="330" x="30" y="30" fill="#123456" class="bg bg-1" rx="10" />
            <path fill="#fff" d="M94.36 292v28h-6.48v-22.8h-5.6V292h12.08z" class="text text-1" />
        </g>
        <g class="color g-2">
            <rect width="120" height="330" x="165" y="30" fill="#234567" class="bg bg-2" rx="10" />
            <path fill="#fff" d="M235.48 314.72V320h-21.16v-4.2l10.8-10.2c1.147-1.093 1.92-2.027 2.32-2.8.4-.8.6-1.587.6-2.36 0-1.12-.387-1.973-1.16-2.56-.747-.613-1.853-.92-3.32-.92-1.227 0-2.333.24-3.32.72-.987.453-1.813 1.147-2.48 2.08l-4.72-3.04c1.093-1.627 2.6-2.893 4.52-3.8 1.92-.933 4.12-1.4 6.6-1.4 2.08 0 3.893.347 5.44 1.04 1.573.667 2.787 1.627 3.64 2.88.88 1.227 1.32 2.68 1.32 4.36 0 1.52-.32 2.947-.96 4.28-.64 1.333-1.88 2.853-3.72 4.56l-6.44 6.08h12.04z" class="text text-2" />
        </g>
        <g class="color g-3">
            <rect width="120" height="330" x="300" y="30" fill="#345678" class="bg bg-3" rx="10" />
            <path fill="#fff" d="M362.64 303.4c2.453.4 4.333 1.32 5.64 2.76 1.307 1.413 1.96 3.173 1.96 5.28a8.468 8.468 0 01-1.28 4.52c-.853 1.36-2.16 2.453-3.92 3.28-1.733.827-3.867 1.24-6.4 1.24-1.973 0-3.92-.253-5.84-.76-1.893-.533-3.507-1.28-4.84-2.24l2.52-4.96c1.067.8 2.293 1.427 3.68 1.88 1.413.427 2.853.64 4.32.64 1.627 0 2.907-.307 3.84-.92.933-.64 1.4-1.533 1.4-2.68 0-2.293-1.747-3.44-5.24-3.44h-2.96v-4.28l5.76-6.52h-11.92V292h19.6v4.2l-6.32 7.2z" class="text text-3" />
        </g>
        <g class="color g-4">
            <rect width="120" height="330" x="435" y="30" fill="#456789" class="bg bg-4" rx="10" />
            <path fill="#fff" d="M508.2 314.12h-4.56V320h-6.32v-5.88h-15.08v-4.36l13.2-17.76h6.8L490 308.84h7.52v-5.24h6.12v5.24h4.56v5.28z" class="text text-4" />
        </g>
        <g class="color g-5">
            <rect width="120" height="330" x="570" y="30" fill="#456789" class="bg bg-5" rx="10" />
            <path fill="#fff" d="M629.16 302.52c3.947 0 6.853.787 8.72 2.36 1.893 1.573 2.84 3.68 2.84 6.32 0 1.707-.427 3.267-1.28 4.68-.853 1.387-2.16 2.507-3.92 3.36-1.733.827-3.88 1.24-6.44 1.24-1.973 0-3.92-.253-5.84-.76-1.893-.533-3.507-1.28-4.84-2.24l2.56-4.96c1.067.8 2.293 1.427 3.68 1.88a14.46 14.46 0 004.28.64c1.627 0 2.907-.32 3.84-.96.933-.64 1.4-1.533 1.4-2.68 0-1.2-.493-2.107-1.48-2.72-.96-.613-2.64-.92-5.04-.92h-7.16l1.44-15.76H639v5.2h-11.68l-.44 5.32h2.28z" class="text text-5" />
        </g>
        <g class="g-white">
            <path fill="#fff" stroke="#D8D8D8" stroke-width="2" d="M41.322 376h187.356c3.85 0 5.083.421 6.313 1.115 1.262.711 2.254 1.754 2.938 3.1.669 1.319 1.071 2.646 1.071 6.72v36.13c0 4.074-.402 5.401-1.071 6.72-.684 1.346-1.676 2.389-2.938 3.1-1.23.694-2.463 1.115-6.313 1.115H41.322c-3.85 0-5.083-.421-6.313-1.115-1.262-.711-2.254-1.754-2.938-3.1-.669-1.319-1.071-2.646-1.071-6.72v-36.13c0-4.074.402-5.401 1.071-6.72.684-1.346 1.676-2.389 2.938-3.1 1.23-.694 2.463-1.115 6.313-1.115z" class="bg-white" />
            <g class="text-white">
                <path fill="#000" d="M122.525 396.5L116.8 414h-4.35l-3.85-11.85-3.975 11.85H100.3l-5.75-17.5h4.2l3.95 12.3 4.125-12.3h3.75l4 12.4 4.075-12.4h3.875zM133.052 400.35c1.667 0 3.009.5 4.025 1.5 1.034 1 1.55 2.483 1.55 4.45v7.7h-3.9v-7.1c0-1.067-.233-1.858-.7-2.375-.466-.533-1.141-.8-2.025-.8-.983 0-1.766.308-2.35.925-.583.6-.875 1.5-.875 2.7V414h-3.9v-18.55h3.9v6.5a5.058 5.058 0 011.875-1.175 6.617 6.617 0 012.4-.425zM142.162 400.55h3.9V414h-3.9v-13.45zm1.95-1.875c-.716 0-1.3-.208-1.75-.625a2.027 2.027 0 01-.675-1.55c0-.617.225-1.133.675-1.55.45-.417 1.034-.625 1.75-.625.717 0 1.3.2 1.75.6.45.4.675.9.675 1.5 0 .65-.225 1.192-.675 1.625-.45.417-1.033.625-1.75.625zM158.357 413.35c-.383.283-.858.5-1.425.65-.55.133-1.133.2-1.75.2-1.6 0-2.842-.408-3.725-1.225-.867-.817-1.3-2.017-1.3-3.6v-5.525h-2.075v-3h2.075v-3.275h3.9v3.275h3.35v3h-3.35v5.475c0 .567.142 1.008.425 1.325.3.3.717.45 1.25.45.617 0 1.142-.167 1.575-.5l1.05 2.75zM173.306 407.325c0 .05-.025.4-.075 1.05h-10.175a3.169 3.169 0 001.3 1.975c.683.483 1.533.725 2.55.725.7 0 1.317-.1 1.85-.3a4.654 4.654 0 001.525-1l2.075 2.25c-1.267 1.45-3.117 2.175-5.55 2.175-1.517 0-2.858-.292-4.025-.875-1.167-.6-2.067-1.425-2.7-2.475s-.95-2.242-.95-3.575c0-1.317.308-2.5.925-3.55a6.559 6.559 0 012.575-2.475c1.1-.6 2.325-.9 3.675-.9 1.317 0 2.508.283 3.575.85a6.1 6.1 0 012.5 2.45c.617 1.05.925 2.275.925 3.675zm-6.975-4.025c-.883 0-1.625.25-2.225.75-.6.5-.967 1.183-1.1 2.05h6.625c-.133-.85-.5-1.525-1.1-2.025-.6-.517-1.333-.775-2.2-.775z" />
            </g>
        </g>
        <g class="g-black">
            <path fill="#000" fill-rule="evenodd" d="M266.322 375h187.356c3.937 0 5.365.432 6.804 1.244 1.439.811 2.569 2.002 3.338 3.519.77 1.517 1.18 3.022 1.18 7.172v36.13c0 4.15-.41 5.655-1.18 7.172-.769 1.517-1.899 2.708-3.338 3.519-1.439.812-2.867 1.244-6.804 1.244H266.322c-3.937 0-5.365-.432-6.804-1.244-1.439-.811-2.569-2.002-3.338-3.519-.77-1.517-1.18-3.022-1.18-7.172v-36.13c0-4.15.41-5.655 1.18-7.172.769-1.517 1.899-2.708 3.338-3.519 1.439-.812 2.867-1.244 6.804-1.244z" class="bg-black" clip-rule="evenodd" />
            <g class="text-black">
                <path fill="#fff" d="M337.925 404.9c1 .317 1.783.85 2.35 1.6.567.733.85 1.642.85 2.725 0 1.533-.6 2.717-1.8 3.55-1.183.817-2.917 1.225-5.2 1.225h-9.05v-17.5h8.55c2.133 0 3.767.408 4.9 1.225 1.15.817 1.725 1.925 1.725 3.325 0 .85-.208 1.608-.625 2.275-.4.667-.967 1.192-1.7 1.575zm-8.825-5.35v4.125h4.025c1 0 1.758-.175 2.275-.525.517-.35.775-.867.775-1.55s-.258-1.192-.775-1.525c-.517-.35-1.275-.525-2.275-.525H329.1zm4.725 11.4c1.067 0 1.867-.175 2.4-.525.55-.35.825-.892.825-1.625 0-1.45-1.075-2.175-3.225-2.175H329.1v4.325h4.725zM343.916 395.45h3.9V414h-3.9v-18.55zM356.861 400.35c2.083 0 3.683.5 4.8 1.5 1.116.983 1.675 2.475 1.675 4.475V414h-3.65v-1.675c-.734 1.25-2.1 1.875-4.1 1.875-1.034 0-1.934-.175-2.7-.525-.75-.35-1.325-.833-1.725-1.45-.4-.617-.6-1.317-.6-2.1 0-1.25.466-2.233 1.4-2.95.95-.717 2.408-1.075 4.375-1.075h3.1c0-.85-.259-1.5-.775-1.95-.517-.467-1.292-.7-2.325-.7-.717 0-1.425.117-2.125.35-.684.217-1.267.517-1.75.9l-1.4-2.725c.733-.517 1.608-.917 2.625-1.2a11.96 11.96 0 013.175-.425zm-.3 11.225c.666 0 1.258-.15 1.775-.45a2.596 2.596 0 001.1-1.375v-1.375h-2.675c-1.6 0-2.4.525-2.4 1.575 0 .5.191.9.575 1.2.4.283.941.425 1.625.425zM373.512 414.2c-1.433 0-2.725-.292-3.875-.875-1.133-.6-2.025-1.425-2.675-2.475-.633-1.05-.95-2.242-.95-3.575 0-1.333.317-2.525.95-3.575a6.666 6.666 0 012.675-2.45c1.15-.6 2.442-.9 3.875-.9 1.417 0 2.65.3 3.7.9a5.182 5.182 0 012.325 2.525l-3.025 1.625c-.7-1.233-1.708-1.85-3.025-1.85-1.017 0-1.858.333-2.525 1-.667.667-1 1.575-1 2.725 0 1.15.333 2.058 1 2.725.667.667 1.508 1 2.525 1 1.333 0 2.342-.617 3.025-1.85l3.025 1.65c-.483 1.067-1.258 1.9-2.325 2.5-1.05.6-2.283.9-3.7.9zM387.46 408.725l-1.875 1.85V414h-3.9v-18.55h3.9v10.5l5.7-5.4h4.65l-5.6 5.7 6.1 7.75h-4.725l-4.25-5.275z" />
            </g>
        </g>
        <g class="g-auto">
            <g class="g-bg-auto">
                <path fill="#234567" d="M480 385c0-5.523 4.477-10 10-10h190c5.523 0 10 4.477 10 10v40c0 5.523-4.477 10-10 10H490c-5.523 0-10-4.477-10-10v-40z" class="bg-auto bg-auto-2" />
                <path fill="#345678" d="M640.919 375H680c5.523 0 10 4.477 10 10v40c0 5.523-4.477 10-10 10h-60l20.919-60z" class="bg-auto bg-auto-3" />
                <path fill="#123456" d="M529.081 435H490c-5.523 0-10-4.477-10-10v-40c0-5.523 4.477-10 10-10h60l-20.919 60z" class="bg-auto bg-auto-1" />
            </g>
            <path class="text-auto" fill="#fff" d="M567.6 410.25h-8.125l-1.55 3.75h-4.15l7.8-17.5h4L573.4 414h-4.25l-1.55-3.75zm-1.275-3.075l-2.775-6.7-2.775 6.7h5.55zM588.246 400.55V414h-3.7v-1.6a5.307 5.307 0 01-1.85 1.35c-.716.3-1.491.45-2.325.45-1.766 0-3.166-.508-4.2-1.525-1.033-1.017-1.55-2.525-1.55-4.525v-7.6h3.9v7.025c0 2.167.909 3.25 2.725 3.25.934 0 1.684-.3 2.25-.9.567-.617.85-1.525.85-2.725v-6.65h3.9zM600.534 413.35c-.383.283-.858.5-1.425.65-.55.133-1.133.2-1.75.2-1.6 0-2.841-.408-3.725-1.225-.866-.817-1.3-2.017-1.3-3.6v-5.525h-2.075v-3h2.075v-3.275h3.9v3.275h3.35v3h-3.35v5.475c0 .567.142 1.008.425 1.325.3.3.717.45 1.25.45.617 0 1.142-.167 1.575-.5l1.05 2.75zM608.709 414.2c-1.417 0-2.692-.292-3.825-.875-1.117-.6-1.992-1.425-2.625-2.475-.634-1.05-.95-2.242-.95-3.575 0-1.333.316-2.525.95-3.575a6.524 6.524 0 012.625-2.45c1.133-.6 2.408-.9 3.825-.9 1.416 0 2.683.3 3.8.9a6.537 6.537 0 012.625 2.45c.633 1.05.95 2.242.95 3.575 0 1.333-.317 2.525-.95 3.575a6.716 6.716 0 01-2.625 2.475c-1.117.583-2.384.875-3.8.875zm0-3.2c1 0 1.816-.333 2.45-1 .65-.683.975-1.592.975-2.725s-.325-2.033-.975-2.7c-.634-.683-1.45-1.025-2.45-1.025-1 0-1.825.342-2.475 1.025-.65.667-.975 1.567-.975 2.7 0 1.133.325 2.042.975 2.725.65.667 1.475 1 2.475 1z" />
        </g>
    </g>
</svg>
